<?xml version="1.0" encoding="utf-8"?>
<!-- Generator: Adobe Illustrator 13.0.0, SVG Export Plug-In . SVG Version: 6.00 Build 14948)  -->
<!DOCTYPE svg PUBLIC "-//W3C//DTD SVG 1.0//EN" "http://www.w3.org/TR/2001/REC-SVG-20010904/DTD/svg10.dtd">
<svg version="1.0" xmlns="http://www.w3.org/2000/svg" xmlns:xlink="http://www.w3.org/1999/xlink" x="0px" y="0px"
	 width="544.375px" height="307.049px" viewBox="0 0 544.375 307.049" enable-background="new 0 0 544.375 307.049"
	 xml:space="preserve">
<g id="Calque_2">
</g>
<g id="Calque_3">
	<g>
		<g>
			<g>
				<polygon fill="#FFFFFF" points="277.537,0 252.415,0 259.151,8.532 256.06,35.075 255.308,41.313 255.333,41.313 
					270.632,41.313 274.618,41.313 270.8,8.532 				"/>
			</g>
			<g>
				<g>
					<path fill="#FFFFFF" d="M286.059,45.243c-10.536-1.686-31.677-1.686-42.213,0c-11.227,1.796-17.288,3.593-17.288,3.593
						l3.592,11.9h6.175c0,0,3.144-2.694,6.961-3.592c3.816-0.898,7.072-0.337,7.072-0.337s-2.021,4.378-3.93,7.073
						c-1.908,2.694-4.827,6.511-4.827,6.511s4.267,7.747,7.186,13.921c2.919,6.175,6.511,13.921,6.511,13.921
						s-0.506,18.535-1.234,32.894c-0.391,7.679-1.204,14.331-1.235,15.941c-0.112,5.838-2.357,6.175-2.357,10.104
						s4.827,22.116,6.849,27.505c2.021,5.389,7.297,12.686,7.297,12.686h0.674c0,0,5.276-7.297,7.297-12.686
						c2.021-5.389,6.849-23.576,6.849-27.505s-2.245-4.266-2.357-10.104c-0.031-1.611-0.846-8.262-1.235-15.941
						c-0.729-14.359-1.234-32.894-1.234-32.894s3.592-7.746,6.511-13.921c2.919-6.174,7.186-13.921,7.186-13.921
						s-2.919-3.817-4.828-6.511c-1.908-2.694-3.929-7.073-3.929-7.073s3.256-0.562,7.072,0.337c3.817,0.898,6.961,3.592,6.961,3.592
						h6.175l3.592-11.9C303.347,48.835,297.286,47.039,286.059,45.243z M262.618,55.992c0.391-0.717,1.45-1.273,2.511-1.273
						s2.12,0.557,2.512,1.273c0.842,1.543,0.186,4.128-0.562,5.305s-1.824,1.459-1.824,1.459h-0.251c0,0-1.078-0.283-1.825-1.459
						S261.775,57.536,262.618,55.992z M267.935,77.463c-0.994,1.601-2.186,3.077-2.693,3.686l0.027,0.299
						c0,0-0.059-0.068-0.141-0.165c-0.081,0.097-0.14,0.165-0.14,0.165l0.026-0.299c-0.508-0.609-1.699-2.085-2.693-3.686
						c-1.3-2.093-2.218-3.2-2.218-4.042c0-0.786,0.407-1.095,2.007-2.989c1.601-1.895,2.989-2.624,2.989-2.624h0.057
						c0,0,1.39,0.729,2.989,2.624s2.007,2.203,2.007,2.989C270.153,74.263,269.235,75.37,267.935,77.463z"/>
				</g>
			</g>
		</g>
	</g>
	<g>
		<path fill="#FFFFFF" d="M0.375,72.212l1.563-7.938c4.791-0.458,8.719-0.989,11.781-1.594c3.063-0.604,5.656-1.344,7.781-2.219
			c10.333,1.334,19.208,3.125,26.625,5.375c7.416,2.25,13.271,4.938,17.563,8.063c1.208,4.625,2.146,8.823,2.813,12.594
			c0.666,3.771,1,6.573,1,8.406c0,1.875-0.25,3.303-0.75,4.281c-0.5,0.979-1.354,1.719-2.563,2.219
			c-1.75,0.75-5.209,1.323-10.375,1.719c-5.167,0.396-11.729,0.594-19.688,0.594c-2.75,0-5.386-0.041-7.906-0.125
			c-2.521-0.083-4.761-0.208-6.719-0.375c6.25,6.917,13.197,12.928,20.844,18.031c7.646,5.104,16.281,9.469,25.906,13.094
			l-0.5,3.063c-3.667,0.834-6.803,2-9.406,3.5c-2.604,1.5-4.803,3.354-6.594,5.563c-6.5-1.792-12.844-4.344-19.031-7.656
			s-12.178-7.364-17.969-12.156c-0.625,5.25-1.313,9.584-2.063,13c-0.75,3.417-1.354,5.125-1.813,5.125
			c-0.792,0-1.844-0.323-3.156-0.969s-3.344-1.906-6.094-3.781c-0.584-0.375-1-0.916-1.25-1.625C0.125,137.692,0,136.546,0,134.962
			c0-0.5,0.021-1.438,0.063-2.813c0.041-1.375,0.063-2.541,0.063-3.5c0-9,0.688-17.989,2.063-26.969
			c1.375-8.979,3.416-17.989,6.125-27.031c-1.209-0.5-2.469-0.947-3.781-1.344C3.219,72.911,1.833,72.546,0.375,72.212z
			 M20.75,98.962c7.5-0.583,14.385-1.594,20.656-3.031c6.271-1.438,11.322-3.156,15.156-5.156c-2.917-2.416-6.834-4.406-11.75-5.969
			c-4.917-1.563-11.625-2.906-20.125-4.031L20.75,98.962z"/>
		<path fill="#FFFFFF" d="M94.5,93.962c0.166-0.708,0.625-1.125,1.375-1.25l4.25-0.375c0.041,0,0.125-0.021,0.25-0.063
			c0.125-0.041,0.208-0.063,0.25-0.063c0.125,0,0.239,0.053,0.344,0.156c0.104,0.104,0.156,0.219,0.156,0.344
			c0,0.209-0.334,1.188-1,2.938c-4.209,10.792-7.375,22.313-9.5,34.563c6.375-6.458,12.313-13.791,17.813-22
			c1.458-2.166,2.375-3.375,2.75-3.625c0.416-0.333,1.844-0.791,4.281-1.375c2.438-0.583,4.614-0.875,6.531-0.875
			c0.166,0,0.271,0.031,0.313,0.094c0.041,0.063,0.063,0.281,0.063,0.656c0,0.167-0.042,0.729-0.125,1.688
			c-0.75,6.959-1.125,14.209-1.125,21.75c0,4.125,0.094,7.803,0.281,11.031c0.188,3.229,0.489,6.239,0.906,9.031l-4.938,1.188
			l-3.313-4.25l-3.938,0.25H110c-0.917,0-2.042-1.063-3.375-3.188c-1.334-2.125-2.813-5.25-4.438-9.375
			c-2.25,1.917-4.438,3.49-6.563,4.719c-2.125,1.229-4.292,2.136-6.5,2.719h-2.438c-1.75,0-3.406-0.125-4.969-0.375
			s-2.99-0.625-4.281-1.125c-0.5-1.5-0.875-3.135-1.125-4.906c-0.25-1.771-0.375-3.677-0.375-5.719
			c0-4.375,0.396-8.885,1.188-13.531c0.791-4.646,2.021-9.531,3.688-14.656c0.125-0.416,0.291-0.719,0.5-0.906
			c0.208-0.188,0.583-0.344,1.125-0.469L94.5,93.962z"/>
		<path fill="#FFFFFF" d="M158.5,121.15l-14.438,17.125l-10.375-0.375c-0.417,0-0.709-0.072-0.875-0.219
			c-0.167-0.146-0.25-0.364-0.25-0.656c0-0.083,0.021-0.219,0.063-0.406c0.041-0.188,0.063-0.322,0.063-0.406l3.688-20.75
			c0.083-0.375,0.188-0.938,0.313-1.688c0.833-4.541,1.25-7.291,1.25-8.25c0-1.083-0.323-1.875-0.969-2.375
			c-0.646-0.5-0.969-1.041-0.969-1.625c0-0.375,0.229-1.208,0.688-2.5c0.458-1.291,1.083-2.791,1.875-4.5
			c1.541-0.708,2.989-1.208,4.344-1.5c1.354-0.291,2.76-0.438,4.219-0.438c2.5,0,4.281,0.698,5.344,2.094
			c1.063,1.396,1.594,3.803,1.594,7.219c0,1.584-0.031,3.031-0.094,4.344s-0.156,2.511-0.281,3.594
			c3.583-1.25,6.822-2.177,9.719-2.781c2.896-0.604,5.572-0.906,8.031-0.906c3.625,0,6.135,0.521,7.531,1.563
			c1.396,1.042,2.094,3.084,2.094,6.125c0,2.584-0.219,6.604-0.656,12.063c-0.438,5.459-0.656,9.625-0.656,12.5
			c0,0.875,0.114,1.469,0.344,1.781c0.229,0.313,0.635,0.573,1.219,0.781l-0.25,1.813c-2.625,1.375-5.156,2.479-7.594,3.313
			c-2.438,0.833-4.219,1.25-5.344,1.25c-2.417,0-4.261-1.479-5.531-4.438C161.322,139.942,159.958,132.692,158.5,121.15z"/>
		<path fill="#FFFFFF" d="M189,132.275v-1.563c0-4.5,0.573-8.927,1.719-13.281c1.146-4.354,2.781-8.239,4.906-11.656
			c1.833-2.875,3.666-5.302,5.5-7.281c1.833-1.979,3.125-2.969,3.875-2.969c0.541,0,1.802,0.198,3.781,0.594
			c1.979,0.396,4.156,0.928,6.531,1.594c2.5,0.667,4.697,1.354,6.594,2.063c1.896,0.709,3.156,1.292,3.781,1.75
			c0.125,0.084,0.458,0.771,1,2.063c0.541,1.292,1.146,2.479,1.813,3.563c-3.625,4.375-7.803,9.521-12.531,15.438
			c-4.729,5.917-7.406,9.104-8.031,9.563l2.438,6.875c3.958-1.25,7.75-2.563,11.375-3.938s5.458-2.063,5.5-2.063
			c0.291,0,0.489,0.167,0.594,0.5c0.104,0.334,0.156,0.938,0.156,1.813c0,0.834-0.042,1.656-0.125,2.469
			c-0.084,0.813-0.209,1.615-0.375,2.406c-3.125,2.75-5.594,4.646-7.406,5.688c-1.813,1.041-3.448,1.563-4.906,1.563
			c-3.959,0-8.553-1.448-13.781-4.344C196.177,140.223,192.041,136.609,189,132.275z M207.375,121.4
			c2.333-3.041,4.406-5.875,6.219-8.5s3.239-4.875,4.281-6.75c-2.709,0.209-4.938,1.594-6.688,4.156S208.166,116.567,207.375,121.4z
			"/>
		<path fill="#FFFFFF" d="M304.75,140.712l0.938-1.813c0.75,0.25,1.488,0.448,2.219,0.594c0.729,0.146,1.426,0.219,2.094,0.219
			c3.041,0,6.832-1,11.375-3c4.541-2,9.707-4.938,15.5-8.813c-13.834-2.75-23.178-5.938-28.031-9.563
			c-4.855-3.625-7.281-8.875-7.281-15.75c0-5.541,1.688-10.916,5.063-16.125c3.375-5.208,8.313-10.083,14.813-14.625
			c4.791-3.416,9.822-6.146,15.094-8.188c5.27-2.041,9.613-3.063,13.031-3.063c1.375,0,2.313,1.042,2.813,3.125
			c0.25,1.125,0.5,2,0.75,2.625c0.791,1.959,1.895,3.594,3.313,4.906c1.416,1.313,3.188,2.323,5.313,3.031l-3.5,21l-2.563,0.5
			l-2.25-10.75c-8.625,1.959-15.99,5.073-22.094,9.344c-6.105,4.271-9.156,7.99-9.156,11.156c0,2.167,2.166,4.188,6.5,6.063
			c0.332,0.125,0.582,0.229,0.75,0.313c3.457,1.459,7.541,2.959,12.25,4.5c4.707,1.542,7.582,2.604,8.625,3.188
			c1.375,0.75,2.729,2.573,4.063,5.469c1.332,2.896,2,5.219,2,6.969c0,1.084-0.303,2.084-0.906,3
			c-0.605,0.917-1.553,1.834-2.844,2.75c-1.959,1.417-5.834,3.292-11.625,5.625l-1.313,0.5c-4.5,1.791-8.25,3.135-11.25,4.031
			c-3,0.896-5.293,1.344-6.875,1.344c-2.459,0-5.156-0.75-8.094-2.25S307.625,143.421,304.75,140.712z"/>
		<path fill="#FFFFFF" d="M376.75,133.65c7.957-0.208,15.063-1.813,21.313-4.813c0.75-0.375,1.188-0.563,1.313-0.563
			s0.219,0.063,0.281,0.188s0.094,0.334,0.094,0.625c0,0.334-0.125,1.042-0.375,2.125c-0.168,0.75-0.293,1.354-0.375,1.813
			c-3.334,3.709-6.781,6.688-10.344,8.938s-6.512,3.375-8.844,3.375c-1.625,0-3.531-0.917-5.719-2.75s-4.344-4.333-6.469-7.5
			c-0.834-1.375-1.449-2.875-1.844-4.5c-0.396-1.625-0.594-3.375-0.594-5.25c0-3.666,0.688-7.26,2.063-10.781
			c1.375-3.521,3.416-6.927,6.125-10.219c2.375-2.916,4.801-5.438,7.281-7.563c2.479-2.125,4.072-3.188,4.781-3.188
			c0.707,0,2.541,0.604,5.5,1.813c2.957,1.209,5.207,2.396,6.75,3.563c0.916,0.75,1.572,1.563,1.969,2.438
			c0.395,0.875,0.594,1.979,0.594,3.313c0,1.5-0.209,3.417-0.625,5.75c-0.418,2.334-1.021,5-1.813,8l-3.438,1.25
			c0.041-0.583,0.094-1.322,0.156-2.219c0.063-0.896,0.094-1.469,0.094-1.719c0-0.666-0.105-1.197-0.313-1.594
			c-0.209-0.396-0.48-0.594-0.813-0.594c-1.75,0-4.449,2-8.094,6C381.76,123.587,378.875,128.275,376.75,133.65z"/>
		<path fill="#FFFFFF" d="M431.375,126.087c-6.25,4.542-11.355,8.136-15.313,10.781c-3.959,2.646-6.23,3.969-6.813,3.969
			c-1.168,0-2.031-0.666-2.594-2c-0.563-1.333-0.844-3.313-0.844-5.938c0-5.25,1.416-10.906,4.25-16.969
			c2.832-6.063,7.125-12.614,12.875-19.656c-0.084-0.291-0.146-0.521-0.188-0.688c-0.043-0.166-0.063-0.313-0.063-0.438
			c0-0.25,0.051-0.489,0.156-0.719c0.104-0.229,0.219-0.427,0.344-0.594l5.75-4.938l0.813-0.813c0.207,0,0.531,0.156,0.969,0.469
			s1.301,0.969,2.594,1.969c0.582-0.25,1.313-0.583,2.188-1c1.041-0.541,1.688-0.813,1.938-0.813c0.957,0,2.688,1.365,5.188,4.094
			c2.5,2.729,4.854,6.073,7.063,10.031c-1.084,2.542-1.887,5.5-2.406,8.875c-0.521,3.375-0.781,7.334-0.781,11.875
			c0,6.417,0.625,12.667,1.875,18.75c0.166,0.875,0.27,1.438,0.313,1.688c0,0.166-0.074,0.291-0.219,0.375
			c-0.146,0.083-0.324,0.125-0.531,0.125c-0.168,0-1.053-0.24-2.656-0.719c-1.605-0.479-3.199-0.906-4.781-1.281
			c-1.25-0.333-2.168-1.125-2.75-2.375c-0.084-0.208-0.146-0.354-0.188-0.438L431.375,126.087z M424.875,103.212
			c-2.5,2.667-4.699,5.781-6.594,9.344c-1.896,3.563-3.365,7.323-4.406,11.281l13.438-11.688L424.875,103.212z"/>
		<path fill="#FFFFFF" d="M459.063,171.712c0.916-8.417,1.822-18.719,2.719-30.906c0.895-12.188,1.426-19.427,1.594-21.719
			l-4.813,0.25H458c-0.375,0-0.615-0.104-0.719-0.313c-0.105-0.208-0.156-0.708-0.156-1.5c0-0.5,0.395-2.75,1.188-6.75
			c0.791-4,1.375-7.833,1.75-11.5l5.75-1.563l0.938-4.625l9.313-7.063l0.375-1.375l6.375-2.438
			c-0.168,1.875-0.313,3.906-0.438,6.094s-0.168,4.469-0.125,6.844c0.416-0.041,1.063-0.104,1.938-0.188
			c2.25-0.208,3.729-0.313,4.438-0.313c4.416,0,7.738,0.594,9.969,1.781c2.229,1.188,3.344,2.969,3.344,5.344
			c0,3.542-0.459,7.5-1.375,11.875c-0.918,4.375-1.834,7.334-2.75,8.875c-0.793,1.417-3.469,4.104-8.031,8.063
			c-4.563,3.959-10.24,8.438-17.031,13.438l-3.875,19.75l-7.375,8.188L459.063,171.712z M473.5,139.712
			c1.291-1.666,3.063-3.875,5.313-6.625c6.125-7.625,9.188-12.083,9.188-13.375c0-0.958-0.521-1.625-1.563-2
			c-1.043-0.375-2.959-0.563-5.75-0.563c-0.334,0-0.678,0.011-1.031,0.031c-0.355,0.021-0.781,0.053-1.281,0.094
			c-1.125,4.75-2.063,8.896-2.813,12.438C474.813,133.254,474.125,136.587,473.5,139.712z"/>
		<path fill="#FFFFFF" d="M504.875,132.275v-1.563c0-4.5,0.572-8.927,1.719-13.281c1.145-4.354,2.781-8.239,4.906-11.656
			c1.832-2.875,3.666-5.302,5.5-7.281c1.832-1.979,3.125-2.969,3.875-2.969c0.541,0,1.801,0.198,3.781,0.594
			c1.979,0.396,4.156,0.928,6.531,1.594c2.5,0.667,4.697,1.354,6.594,2.063c1.895,0.709,3.156,1.292,3.781,1.75
			c0.125,0.084,0.457,0.771,1,2.063c0.541,1.292,1.145,2.479,1.813,3.563c-3.625,4.375-7.803,9.521-12.531,15.438
			c-4.73,5.917-7.406,9.104-8.031,9.563l2.438,6.875c3.957-1.25,7.75-2.563,11.375-3.938s5.457-2.063,5.5-2.063
			c0.291,0,0.488,0.167,0.594,0.5c0.104,0.334,0.156,0.938,0.156,1.813c0,0.834-0.043,1.656-0.125,2.469
			c-0.084,0.813-0.209,1.615-0.375,2.406c-3.125,2.75-5.594,4.646-7.406,5.688c-1.813,1.041-3.449,1.563-4.906,1.563
			c-3.959,0-8.553-1.448-13.781-4.344C512.051,140.223,507.917,136.609,504.875,132.275z M523.25,121.4
			c2.332-3.041,4.406-5.875,6.219-8.5s3.238-4.875,4.281-6.75c-2.709,0.209-4.938,1.594-6.688,4.156S524.042,116.567,523.25,121.4z"
			/>
	</g>
</g>
<g id="Calque_5">
</g>
<g id="Calque_4">
</g>
<g id="Layer_5">
	<g>
		<path fill="#FFFFFF" d="M84.271,293.772c1.807-3.266,3.737-7.69,5.792-13.277c-0.739-0.082-1.5-0.123-2.28-0.123
			c-2.629,0-5.586,0.369-8.872,1.108l-1.17-1.971l12.568-12.384h5.668l9.426-27.232c-0.576-2.711-1.417-4.066-2.526-4.066
			c-0.329,0.041-0.678,0.164-1.047,0.369c-1.643,0.945-3.697,2.979-6.161,6.1l-2.587-1.972c7.516-9.651,11.911-14.95,13.185-15.896
			c1.272-0.944,2.958-1.417,5.052-1.417c0-0.04,0.041-0.062,0.123-0.062c2.012,0,3.676,0.822,4.991,2.465
			c1.314,1.643,5.442,13.462,12.384,35.457c6.941,21.995,12.835,33.547,17.682,34.656l-9.549,11.213
			c-2.711-0.657-5.299-2.495-7.763-5.514c-2.464-3.02-6.387-12.168-11.768-27.448l-6.161,6.593l-12.199,0.123
			c-3.04,6.9-6.038,11.09-8.995,12.568l15.218,0.062l0.924,1.109l-8.872,11.645l-19.962,0.062l-0.924-2.772
			C79.855,300.169,82.463,297.038,84.271,293.772z M115.508,267.618l-6.1-17.744l-6.038,17.683L115.508,267.618z"/>
		<path fill="#FFFFFF" d="M167.955,249.443c3.213,2.136,4.635,5.729,4.266,10.781c4.271-5.38,8.296-8.769,12.076-10.165
			c3.779-1.396,8.01,1.007,12.692,7.208l-11.151,10.289c-3.984-5.709-8.607-6.182-13.867-1.417
			c-0.46,11.378-0.321,18.915,0.418,22.611s2.485,5.237,5.237,4.621v1.479l-13.184,11.337c-3.513-2.096-5.539-4.508-6.079-7.24
			c-0.541-2.73-0.605-12.989-0.194-30.774c0.334-5.627-1.021-7.517-4.066-5.668l-1.417-2.033L167.955,249.443z"/>
		<path fill="#FFFFFF" d="M201.382,281.321c0-7.898,4.436-15.356,13.31-22.374c2.135-1.765,4.208-3.319,6.221-4.664
			c2.012-1.344,4.169-2.479,6.47-3.403c1.437-0.588,2.896-0.882,4.374-0.882c0.944,0.042,1.889,0.169,2.834,0.381
			c2.505,0.593,5.042,1.937,7.609,4.032c2.566,2.097,3.912,4.986,4.035,8.669l-12.075,9.654c-1.686-5.266-4.725-8.733-9.119-10.406
			c-1.191-0.334-2.279-0.501-3.266-0.501c-3.203,0-5.236,1.756-6.099,5.266c-0.33,1.881-0.493,3.698-0.493,5.453
			c0,8.108,3.778,14.313,11.336,18.616c2.998,2.049,5.792,3.072,8.38,3.072c0.04,0,0.081,0,0.123,0
			c2.588-0.041,4.702-0.825,6.346-2.35c1.643-1.525,2.978-2.978,4.005-4.357l1.972,1.755c-2.671,3.837-6.038,7.593-10.104,11.269
			s-8.03,5.513-11.891,5.513h-0.062c-3.903-0.04-7.247-0.779-10.034-2.219c-2.787-1.438-5.53-3.8-8.228-7.082
			C203.263,291.453,201.382,286.305,201.382,281.321z"/>
		<path fill="#FFFFFF" d="M268.316,219.068c2.013,1.644,3.286,4.231,3.82,7.764l0.246,33.393c1.889-1.149,3.869-2.587,5.939-4.313
			c2.069-1.725,4.703-3.367,7.9-4.929c3.197-1.561,6.661-1.602,10.391-0.123s6.169,3.811,7.317,6.992
			c1.147,3.184,1.578,7.425,1.291,12.724c-0.409,8.625-0.265,14.838,0.435,18.637c0.698,3.8,2.115,5.371,4.251,4.714l-0.062,1.54
			l-12.412,11.336c-3.23-2.176-4.988-4.733-5.275-7.67s-0.327-10.566-0.121-22.889c0.04-8.626-1.756-13.626-5.391-15.003
			c-3.636-1.375-8.472,0.258-14.51,4.898c-0.452,11.378-0.308,18.915,0.432,22.611s2.484,5.237,5.236,4.621v1.479l-13.062,12.199
			c-2.218-2.628-3.687-5.411-4.405-8.349c-0.719-2.937-0.996-23.833-0.831-62.689c-0.165-3.532-0.761-6.346-1.787-8.44
			L268.316,219.068z"/>
		<path fill="#FFFFFF" d="M330.696,224.737c3.614,1.108,6.059,3.019,7.332,5.729c0.78,1.644,1.171,2.999,1.171,4.066
			c0,0.699-0.165,1.273-0.493,1.725c-0.862,1.15-4.756,4.026-11.678,8.626c-1.972-3.696-4.868-6.859-8.688-9.488L330.696,224.737z
			 M333.93,249.689c2.154,2.465,3.293,4.889,3.416,7.271c0,0.739,0,1.746,0,3.019c0.041,2.794-0.021,6.86-0.185,12.199
			c-0.083,2.383-0.123,4.539-0.123,6.469c0,4.437,0.185,7.743,0.554,9.92c0.493,3.08,1.808,4.621,3.943,4.621
			c0.082,0,0.144,0,0.186,0l-0.063,1.602l-12.33,11.46c-3.399-1.972-5.244-4.498-5.535-7.578c-0.165-1.808-0.248-5.277-0.248-10.413
			c0-3.655,0.04-8.152,0.123-13.492c0.287-2.752,0.432-5.093,0.432-7.024c0.044-4.436-0.755-6.653-2.397-6.653
			c-0.452,0-0.945,0.145-1.479,0.431l-0.985-1.725L333.93,249.689z"/>
		<path fill="#FFFFFF" d="M360.105,251.552c0.862-0.575,1.643-0.863,2.341-0.863c1.149,0,2.013,0.802,2.588,2.404
			c13.514,27.715,22.057,41.572,25.631,41.572c0.04,0,0.081,0,0.123,0c3.613-3.327,5.545-7.825,5.791-13.493
			c0-0.287,0-0.574,0-0.862c0-5.339-1.869-10.598-5.606-15.772c-2.383-3.286-4.908-4.929-7.578-4.929
			c-1.767,0-3.615,0.739-5.545,2.218l-1.171-1.355c5.627-8.461,10.638-12.692,15.033-12.692c0.739,0,1.479,0.127,2.218,0.38
			c5.091,1.729,9.386,5.879,12.884,12.45c1.597,2.998,2.396,5.977,2.396,8.934c-0.044,3.573-1.209,7.127-3.498,10.658
			c-4.231,6.491-7.871,11.46-10.919,14.91c-2.999,3.492-6.285,6.572-9.858,9.242c-1.314,0.985-2.649,1.479-4.005,1.479
			c-2.218,0-4.436-1.376-6.653-4.128l-18.422-34.379c-1.603-2.711-3.204-4.066-4.806-4.066c-0.781,0-1.54,0.308-2.28,0.924
			l-0.492-1.048L360.105,251.552z"/>
		<path fill="#FFFFFF" d="M428.52,257.159c4.683-4.199,9.633-6.299,14.851-6.299c1.034,0,2.091,0.083,3.168,0.246
			c6.461,0.985,10.127,4.31,10.997,9.972c0.083,0.534,0.125,1.047,0.125,1.539c0,5.238-3.956,10.35-11.866,15.337l-13.412,8.926
			c0.818,2.472,3.685,4.692,8.599,6.661c1.229,0.504,2.579,0.755,4.054,0.755c4.313,0,9.57-2.179,15.772-6.536l1.849,1.508
			c-1.89,3.773-5.854,7.844-11.892,12.212c-4.271,3.098-8.434,4.646-12.488,4.646c-1.646,0-3.291-0.263-4.935-0.786
			c-6.825-2.379-11.513-6.392-14.063-12.036c-1.604-3.468-2.405-7.117-2.405-10.948c0-2.453,0.308-4.969,0.924-7.547
			C419.358,268.073,422.932,262.189,428.52,257.159z M428.546,277.262c0.389,2.012,1.053,4.085,1.994,6.223
			c8.636-4.734,13.239-8.987,13.812-12.76c0.082-0.461,0.123-0.943,0.123-1.445c0-3.059-1.575-5.573-4.727-7.543
			c-1.842-1.131-3.499-1.697-4.972-1.697c-1.433-0.04-2.702,0.505-3.806,1.635c-2.17,2.18-3.254,4.714-3.254,7.605
			c0.04,0.126,0.062,0.252,0.062,0.377C427.901,272.716,428.157,275.251,428.546,277.262z"/>
	</g>
</g>
</svg>
